<svg id="svg" xmlns="http://www.w3.org/2000/svg" xmlns:xlink="http://www.w3.org/1999/xlink" width="400" height="397.4842767295597" viewBox="0, 0, 400,397.4842767295597"><g id="svgg"><path id="path0" d="M75.448 32.675 C 21.234 39.774,17.171 117.917,70.393 129.875 C 78.731 131.749,79.793 124.402,71.531 122.000 C 60.885 118.905,52.030 112.722,46.985 104.861 C 24.226 69.394,60.492 27.160,99.058 44.219 C 104.013 46.411,104.477 47.265,102.344 50.261 C 100.052 53.480,100.817 53.793,109.370 53.136 C 118.570 52.428,118.669 52.285,116.182 43.247 C 113.713 34.271,113.716 34.275,110.884 37.564 L 108.595 40.222 102.882 37.405 C 94.652 33.348,84.147 31.536,75.448 32.675 M157.652 49.476 L 157.652 55.346 221.310 55.346 C 302.140 55.346,304.333 55.723,320.856 72.470 C 336.244 88.068,337.107 92.275,337.107 151.738 L 337.107 197.904 329.941 197.904 C 315.650 197.904,315.536 200.426,328.829 222.686 C 343.586 247.398,343.207 247.399,357.987 222.647 C 371.244 200.446,371.132 197.904,356.895 197.904 L 349.773 197.904 349.482 149.057 C 349.202 101.923,349.128 100.003,347.391 94.317 C 340.799 72.744,328.764 58.622,309.160 49.457 C 296.702 43.633,296.304 43.606,222.968 43.606 L 157.652 43.606 157.652 49.476 M76.322 51.132 C 75.763 52.176,75.520 58.722,75.663 68.835 L 75.891 84.881 91.086 92.771 C 105.813 100.417,108.297 101.192,109.343 98.468 C 110.294 95.989,108.491 94.612,95.515 87.904 L 82.180 81.010 82.180 66.249 C 82.180 55.887,81.880 51.189,81.174 50.482 C 79.653 48.961,77.316 49.274,76.322 51.132 M120.922 62.222 C 118.368 64.777,120.917 71.279,124.473 71.279 C 127.246 71.279,128.613 69.268,127.982 66.116 C 127.066 61.536,123.548 59.596,120.922 62.222 M123.779 77.637 C 122.115 81.974,123.759 86.373,127.044 86.373 C 129.611 86.373,130.818 84.765,130.818 81.342 C 130.818 76.785,125.234 73.846,123.779 77.637 M122.074 92.721 C 120.287 94.508,119.486 98.079,120.506 99.711 C 121.864 101.880,125.425 101.847,126.963 99.652 C 130.481 94.628,126.215 88.580,122.074 92.721 M114.425 107.041 C 111.091 110.639,112.078 114.885,116.249 114.885 C 120.232 114.885,122.909 108.788,120.060 106.210 C 117.945 104.296,116.815 104.462,114.425 107.041 M172.743 115.967 C 154.380 121.165,147.478 144.329,160.032 158.627 L 162.654 161.613 158.266 162.073 C 146.900 163.265,138.051 169.588,133.090 180.063 L 130.398 185.744 130.143 217.812 L 129.888 249.880 131.992 251.984 L 134.096 254.088 158.020 254.088 L 181.945 254.088 185.333 259.453 C 189.817 266.553,194.170 268.788,199.119 266.533 C 202.366 265.054,206.494 267.583,208.031 271.993 C 210.125 278.002,213.360 279.426,224.175 279.100 L 233.256 278.826 236.125 275.694 C 237.703 273.971,238.994 271.698,238.994 270.643 C 238.994 267.488,243.731 265.421,248.019 266.706 C 258.530 269.855,271.005 249.027,263.343 241.121 C 260.265 237.946,259.947 234.152,262.560 231.788 C 271.916 223.321,257.482 199.595,246.537 205.453 C 244.661 206.457,238.994 203.527,238.994 201.553 C 238.994 198.656,236.218 195.178,232.645 193.598 C 229.297 192.117,228.931 191.672,228.931 189.091 C 228.931 176.378,213.452 161.845,199.912 161.845 L 196.924 161.845 199.528 158.557 C 215.631 138.225,197.267 109.026,172.743 115.967 M103.034 116.989 C 98.892 119.240,99.799 124.948,104.299 124.948 C 106.185 124.948,110.692 121.560,110.692 120.143 C 110.692 116.627,106.715 114.989,103.034 116.989 M89.109 122.529 C 86.052 123.412,84.637 126.630,86.382 128.732 C 88.880 131.741,96.436 129.356,96.436 125.558 C 96.436 124.341,93.369 121.480,92.266 121.669 C 92.023 121.711,90.602 122.097,89.109 122.529 M184.723 128.618 C 192.586 131.982,195.830 140.863,191.797 147.984 C 184.420 161.010,164.979 155.337,166.208 140.516 C 166.998 130.987,176.296 125.012,184.723 128.618 M57.159 157.122 C 54.720 158.474,35.220 190.829,35.220 193.523 C 35.220 197.752,38.615 199.581,46.465 199.581 L 53.593 199.581 53.870 248.428 C 54.171 301.422,54.028 299.667,59.062 312.132 C 67.167 332.198,85.914 347.964,106.792 352.273 C 113.929 353.746,119.050 353.857,180.084 353.867 L 245.702 353.878 245.702 348.041 L 245.702 342.204 178.826 341.962 L 111.950 341.719 105.241 339.351 C 85.407 332.351,71.422 317.154,67.454 298.288 C 66.488 293.696,66.247 283.291,66.247 246.067 L 66.247 199.581 73.413 199.581 C 87.704 199.581,87.801 197.212,74.423 174.885 C 63.125 156.027,61.726 154.588,57.159 157.122 M207.593 176.542 C 213.989 180.499,220.216 192.866,215.817 192.875 C 212.654 192.882,208.932 196.027,207.863 199.596 C 206.493 204.167,203.883 205.514,197.644 204.870 C 191.557 204.242,189.781 205.392,184.773 213.205 C 178.603 222.830,178.232 227.367,183.289 231.344 C 185.935 233.426,186.035 237.710,183.502 240.407 C 181.697 242.328,181.480 242.348,162.118 242.348 L 142.558 242.348 142.576 215.723 C 142.596 186.783,142.867 184.926,147.851 179.585 C 152.876 174.199,155.998 173.669,181.620 173.850 L 203.491 174.004 207.593 176.542 M63.638 180.761 C 65.534 183.786,67.086 186.427,67.086 186.631 C 67.086 186.835,63.847 187.002,59.888 187.002 C 55.929 187.002,52.816 186.662,52.970 186.247 C 53.683 184.321,59.180 175.309,59.655 175.287 C 59.949 175.273,61.742 177.737,63.638 180.761 M226.907 206.080 C 228.785 212.359,238.863 218.960,246.078 218.635 C 251.796 218.378,254.077 221.598,250.713 225.180 C 247.631 228.460,247.585 242.461,250.642 246.596 C 253.767 250.823,251.684 253.783,245.862 253.390 C 239.539 252.964,229.823 258.561,227.546 263.941 C 226.178 267.174,220.108 268.087,219.185 265.199 C 217.950 261.334,216.584 259.947,210.752 256.628 C 205.121 253.425,204.028 253.092,200.305 253.450 C 194.721 253.987,192.148 250.407,195.532 246.809 C 198.804 243.329,198.938 229.451,195.737 225.646 C 192.258 221.512,194.266 218.348,200.168 218.664 C 206.108 218.981,216.061 213.263,218.427 208.174 C 220.289 204.168,225.919 202.778,226.907 206.080 M350.524 210.922 C 350.524 212.098,343.577 222.174,343.009 221.823 C 342.349 221.415,336.268 211.508,336.268 210.841 C 336.268 210.644,339.476 210.482,343.396 210.482 C 347.317 210.482,350.524 210.680,350.524 210.922 M217.217 218.289 C 213.022 219.626,206.654 226.115,205.539 230.189 C 199.622 251.819,229.109 263.986,239.203 244.079 C 246.681 229.333,232.983 213.265,217.217 218.289 M227.067 231.075 C 231.165 233.945,228.179 242.348,223.061 242.348 C 220.218 242.348,217.191 239.073,217.191 235.998 C 217.191 230.685,222.635 227.971,227.067 231.075 M275.039 269.060 C 268.285 272.654,268.371 272.026,268.371 317.400 C 268.371 373.073,262.646 367.296,317.820 367.296 C 372.993 367.296,367.268 373.073,367.268 317.400 C 367.268 272.026,367.355 272.654,360.600 269.060 C 356.099 266.665,279.541 266.665,275.039 269.060 M357.904 276.897 C 359.353 278.346,359.353 356.454,357.904 357.904 C 356.455 359.353,279.185 359.353,277.736 357.904 C 276.287 356.454,276.287 278.346,277.736 276.897 C 279.185 275.448,356.455 275.448,357.904 276.897 M290.314 289.476 C 287.884 291.906,289.655 296.226,293.082 296.226 C 295.571 296.226,296.822 294.887,296.843 292.201 C 296.859 289.996,295.320 288.470,293.082 288.470 C 292.113 288.470,290.868 288.922,290.314 289.476 M306.559 289.787 C 304.792 291.554,304.899 293.159,306.918 295.178 C 308.797 297.057,339.628 297.768,344.180 296.038 C 346.544 295.139,347.204 291.355,345.325 289.476 C 343.642 287.793,308.269 288.077,306.559 289.787 M290.314 314.633 C 289.761 315.187,289.308 316.432,289.308 317.400 C 289.308 318.369,289.761 319.614,290.314 320.168 C 290.868 320.721,292.113 321.174,293.082 321.174 C 294.050 321.174,295.296 320.721,295.849 320.168 C 296.403 319.614,296.855 318.369,296.855 317.400 C 296.855 316.432,296.403 315.187,295.849 314.633 C 295.296 314.080,294.050 313.627,293.082 313.627 C 292.113 313.627,290.868 314.080,290.314 314.633 M306.023 315.410 C 305.330 316.704,305.317 317.739,305.975 319.184 L 306.882 321.174 325.600 321.174 C 345.251 321.174,346.331 320.977,346.331 317.400 C 346.331 313.824,345.248 313.627,325.648 313.627 C 307.465 313.627,306.952 313.673,306.023 315.410 M291.615 338.592 C 289.824 338.976,288.748 342.740,289.905 344.574 C 292.110 348.070,297.599 345.217,296.569 341.110 C 296.024 338.940,294.235 338.031,291.615 338.592 M306.918 339.623 C 304.899 341.642,304.792 343.247,306.559 345.013 C 308.269 346.724,343.642 347.008,345.325 345.325 C 347.204 343.446,346.544 339.662,344.180 338.763 C 339.628 337.033,308.797 337.744,306.918 339.623 " stroke="none" fill="#000000" fill-rule="evenodd"></path></g></svg>